<svg xmlns="http://www.w3.org/2000/svg" viewBox="0 0 800 850">
  <defs>
    <marker id="arrow" markerWidth="10" markerHeight="10" refX="9" refY="3" orient="auto" markerUnits="strokeWidth">
      <path d="M0,0 L0,6 L9,3 z" fill="#000" />
    </marker>
  </defs>
  <rect width="100%" height="100%" fill="#f4f4f4"/>
  <rect width="100%" height="50" fill="#232F3E"/>
  <text x="20" y="32" font-family="Arial" font-size="20" fill="#ffffff" font-weight="bold">18. PartiQL: SQL Interface for DynamoDB</text>
  
  <!-- SQL Input -->
  <rect x="250" y="80" width="300" height="80" rx="10" fill="#dae8fc" stroke="#6c8ebf" stroke-width="2"/>
  <text x="400" y="115" text-anchor="middle" font-family="Arial" font-size="14" font-weight="bold">SELECT * FROM "Orders"</text>
  <text x="400" y="135" text-anchor="middle" font-family="Arial" font-size="11">WHERE userId = '123'</text>

  <!-- PartiQL Engine -->
  <path d="M400,180 L580,250 L400,320 L220,170 Z" fill="#fff2cc" stroke="#d6b656" stroke-width="2" transform="translate(0,20)"/>
  <text x="400" y="230" text-anchor="middle" font-family="Arial" font-size="13" font-weight="bold">PartiQL Engine</text>
  <text x="400" y="245" text-anchor="middle" font-family="Arial" font-size="11">SQL-to-API Transpiler</text>
  <line x1="400" y1="160" x2="400" y2="180" stroke="#000" stroke-width="1.5" marker-end="url(#arrow)"/>

  <!-- Translation Logic -->
  <rect x="300" y="350" width="200" height="70" fill="#f8cecc" stroke="#b85450" stroke-width="2"/>
  <text x="400" y="380" text-anchor="middle" font-family="Arial" font-size="13" font-weight="bold">Internal API Call</text>
  <text x="400" y="395" text-anchor="middle" font-family="Arial" font-size="11">Execute Query / Put / Update</text>
  <line x1="400" y1="320" x2="400" y2="350" stroke="#000" stroke-width="1.5" marker-end="url(#arrow)"/>

  <!-- Physical Storage -->
  <rect x="40" y="460" width="720" height="200" fill="none" stroke="#999" stroke-dasharray="5,5"/>
  <text x="50" y="480" font-family="Arial" font-size="12" font-weight="bold" fill="#666">DynamoDB Fleet</text>

  <rect x="250" y="520" width="300" height="100" fill="#d5e8d4" stroke="#82b366" stroke-width="2"/>
  <text x="400" y="575" text-anchor="middle" font-family="Arial" font-size="14" font-weight="bold">NoSQL Storage Engine</text>
  <line x1="400" y1="420" x2="400" y2="520" stroke="#000" stroke-width="1.5" marker-end="url(#arrow)"/>

  <!-- Legend -->
  <rect x="100" y="700" width="600" height="100" fill="#f9f9f9" stroke="#ddd" />
  <text x="120" y="725" font-family="Arial" font-size="12" font-weight="bold">Usage Considerations:</text>
  <text x="120" y="750" font-family="Arial" font-size="11">- Great for: Ad-hoc debugging, relational background migrations.</text>
  <text x="120" y="770" font-family="Arial" font-size="11">- Caution: Still adheres to RCU/WCU and 1MB limits. Hidden Scans possible.</text>
</svg>